<svg id="Layer_1" data-name="Layer 1" xmlns="http://www.w3.org/2000/svg" width="225" height="59.7" viewBox="0 0 225 59.7">
  <defs>
    <style>
      .cls-1 {
        fill: #fff;
      }

      .cls-2 {
        fill: #ee5586;
      }
    </style>
  </defs>
  <title>logo</title>
  <path class="cls-1" d="M225,66.8v5.7H0V66.8Z" transform="translate(0 -13.9)"/>
  <g>
    <path class="cls-1" d="M37.8,32.1V54.8H27v-5c-2.1,3.6-6.3,5.5-12.1,5.5C5.5,55.4,0,50.3,0,43.4S5,31.5,17.1,31.5h9.2c0-5-3-7.8-9.2-7.8A19.27,19.27,0,0,0,5.6,27.4L1.5,19.3c4.4-3.1,10.8-4.8,17.1-4.8C30.7,14.5,37.8,20.1,37.8,32.1ZM26.2,42.3V38.2H18.3c-5.4,0-7.1,2-7.1,4.7,0,2.9,2.4,4.8,6.5,4.8C21.6,47.7,24.9,45.9,26.2,42.3Z" transform="translate(0 -13.9)"/>
    <path class="cls-1" d="M48.27,37.89,47.72,15.1l11.49-.28.51,21c.16,6.4,3.23,9.33,8.33,9.2,5.5-.13,9.41-3.63,9.24-10.92l-.48-19.7,11.5-.28,1,39.79-11,.27-.11-4.7c-3,3.47-7.67,5.39-13.07,5.52C55.69,55.31,48.57,50.09,48.27,37.89Z" transform="translate(0 -13.9)"/>
    <path class="cls-1" d="M182.05,16v10.6a23.48,23.48,0,0,0-2.6-.1c-6.4,0-10.6,3.5-10.6,11.1v18.8h-11.5V16.63h11v5.2C171.15,18,176,16,182.05,16Z" transform="translate(0 -13.9)"/>
    <path class="cls-1" d="M119.15,13.9V24.5a23.48,23.48,0,0,0-2.6-.1c-6.4,0-10.6,3.5-10.6,11.1V54.3H94.45V14.5h11v5.2C108.25,15.9,113.05,13.9,119.15,13.9Z" transform="translate(0 -13.9)"/>
    <path class="cls-1" d="M148,37.59l-20.9-.1c1.1,5,5.4,6.89,11.4,8,6.15,1.14,11-5.27,11-9.06,0-1.65-8.1,5.48-7.27,4.8,2.13-1.75,13-5.09,15.15-6.84-1,11-7.24,15.54-17.28,18-13.32,3.22-18.69-4.42-22.27-16.91,0-11.9,7.3-19.41,19.4-19.41,11.7,0,17.33,9.6,17.33,22.4,0,.64.54-1-3.46-1C149.78,37.43,148.7,37.52,148,37.59Zm-20.9-.1h22.16c1.79-3.16-6-15.56-11-14.16C127.05,26.43,127.85,32.39,127.05,37.49Z" transform="translate(0 -13.9)"/>
    <path class="cls-1" d="M119.15,13.9V24.5a23.48,23.48,0,0,0-2.6-.1c-6.4,0-10.6,3.5-10.6,11.1V54.3H94.45V14.5h11v5.2C108.25,15.9,113.05,13.9,119.15,13.9Z" transform="translate(0 -13.9)"/>
    <path class="cls-1" d="M219.55,32.1V54.8h-10.8v-5c-2.1,3.6-6.3,5.5-12.1,5.5-9.4.1-14.9-5-14.9-11.9s5-11.9,17.1-11.9h9.2c0-5-3-7.8-9.2-7.8a19.27,19.27,0,0,0-11.5,3.7l-4.1-8.1c4.4-3.1,10.8-4.8,17.1-4.8C212.45,14.5,219.55,20.1,219.55,32.1ZM208,42.3V38.2h-7.9c-5.4,0-7.1,2-7.1,4.7,0,2.9,2.4,4.8,6.5,4.8C203.35,47.7,206.65,45.9,208,42.3Z" transform="translate(0 -13.9)"/>
  </g>

  <g>
    <circle id="svg-ico" class="cls-2" cx="5.2" cy="55.7" r="4"/>
    <animateMotion xmlns="http://www.w3.org/2000/svg" fill="remove" repeatCount="indefinite" dur="6s" begin="0s" path="M210,0 0 0 210,0" restart="always" calcMode="paced" additive="replace" accumulate="none">
		</animateMotion>
  </g>
</svg>
